<svg version="1.2" xmlns="http://www.w3.org/2000/svg" viewBox="0 0 127 127" width="127" height="127">
	<title>logo</title>
	<style>
		.s0 { fill: #FFFFFF } 
	</style>
	<g>
		<path class="s0" d="m53 5.8c0 0.5-1.7 1.4-3.8 2-5.4 1.6-10.4 7.1-16.3 17.6-4.7 8.5-4.9 9.1-3.2 10.4 2.9 2.1 21.4 12.4 21.7 12 0.1-0.1 1.2-1.9 2.3-3.8 1.1-1.9 4.6-7.8 7.7-13.2l5.7-9.6-3.6-5.7c-2.3-3.5-4.9-6.2-6.8-7-3.1-1.4-3.1-1.4-0.7-1.5 4.1 0 6.6 2.5 12.3 12.3 8.7 14.8 8.4 13.1 2.7 16.6-2.8 1.7-5 3.3-5 3.6 0 0.3 7.1 0.5 15.8 0.5h15.7l7.1-13.5c4-7.4 6.9-13.7 6.5-13.9-0.4-0.3-2.8 0.9-5.4 2.5-2.6 1.6-5.1 2.9-5.5 2.9-0.4 0-2.1-2.2-3.6-4.9-4.6-7.7-5.7-8.1-26-8.1-9.7 0-17.6 0.4-17.6 0.8z"/>
		<path class="s0" d="m95.8 44.3c-6 3.4-10.8 6.7-10.8 7.4 0 0.9 7.9 15.4 13.6 24.9 1.1 1.8 1.9 2 7.6 1.6 3.4-0.2 7.7-1.1 9.3-2l3-1.5-2.4 2.7c-2.4 2.6-2.6 2.6-16.8 2.6h-14.3v-6c0-3.3-0.4-6-0.9-6-0.9 0-15.1 26-15.1 27.8 0 1.7 14.6 24.6 16 25 1 0.4 1.1-1.1 0.6-6.2l-0.8-6.6h5.7c8 0 11.8-1.9 15.1-7.7 1.5-2.6 5.6-9.6 9-15.5 3.4-5.9 5.8-10.8 5.4-11-0.5-0.2-0.5-2.2 0.1-4.6 0.6-2.9 0.6-5.6-0.1-8.3-1.1-4.1-11.7-22.9-12.8-22.9-0.4 0.1-5.5 2.9-11.4 6.3z"/>
		<path class="s0" d="m15.5 42.7c-5.5 0.2-10.4 0.8-10.8 1.2-0.5 0.5 1.7 2.2 4.7 4l5.6 3.1-3 6c-1.6 3.3-3 6.9-3 8.1 0 1.2 2.8 7 6.1 12.8 3.4 5.8 7.3 12.7 8.8 15.4 1.4 2.6 3 4.6 3.5 4.4 0.4-0.1 2.2 1 3.8 2.5 4.3 4 11.5 5.8 23.5 5.8h10.3v-14-14h-15.9-15.8l-2.8 6.2c-1.5 3.4-2.8 7.6-2.7 9.3 0 2.5-0.1 2.7-0.8 1-2-4.8-0.8-8 10.5-27.1l1.9-3.1 4.9 2.9c2.7 1.6 5.4 2.7 5.9 2.6 0.5-0.2-1.5-4.1-4.3-8.8-2.9-4.7-6.6-10.9-8.3-13.7-3.1-5.2-3.2-5.3-7.6-5.1-2.5 0.1-9 0.4-14.5 0.5z"/>
	</g>
</svg>