<svg version="1.2" xmlns="http://www.w3.org/2000/svg" viewBox="0 0 1261 140" width="1261" height="140">
	<title>logo-complete-horizontal</title>
	<style>
		.s0 { fill: #c19d60 } 
	</style>
	<path id="Diesel nacional" class="s0" aria-label="Diesel nacional"  d="m297.7 61.1q0 11.1-7.7 23.4-10.2 16.3-29.6 25.3-17.8 8.2-38.4 8.2h-19.9l21.9-62.1h21.8l-18.6 52.4q12 0 23.7-7.3 11.7-7.3 17.1-18.1 4.8-9.5 4.8-15.9 0-10.4-5.8-14.9-5.2-4-16-4h-58.5l9.3-15.3h58.6q15.2 0 25.3 6.4 12 7.6 12 21.9zm43.9-9.1q0 6.1-4.8 10.3-4.6 4.2-11.2 4.2-6.8 0-11.5-4.2-4.6-4.2-4.6-10.3 0-6 4.6-10.2 4.7-4.3 11.5-4.3 6.6 0 11.2 4.3 4.8 4.2 4.8 10.2zm-20.4 56.3h24.7q-1.6 5.3-6.5 7.9-3.6 1.8-7.8 1.8h-23.9q-8.7 0-8.7-7.3 0-2 0.9-4.4l10.5-29.5h22zm53.6 0h47.2q-1.3 4.7-5.8 7.4-4.1 2.3-9.3 2.3h-33.7q-29.4 0-29.4-17.7 0-11.4 10-17.9 8.7-5.6 20.6-5.6h8.8q7.7 0 13.5 2.4 7.8 3.2 8.1 9.6 0.3 6.5-6.2 10.7h-20.1l6.6-13h-12.8l-5 14.6q-0.4 1.3-0.4 2.3 0 4.9 7.9 4.9zm95.8 0h24.2q-0.2 4.1-4.7 6.9-4.3 2.8-9.5 2.8h-46q-13.3 0-13.3-8.1 0-0.7 0.1-1.6 0.5-3.6 3.9-5.6 2.9-1.8 6.6-1.7 6.6 0.2 17.8 7.2 3.2-4 3.2-8.1 0-2.1-2.6-9.4l-6.8 6.2h-12.2l16.1-14.8q-1-1.9-1.5-3.1-0.8-2.3-0.8-5.1l14.9-15.9q10 1.7 10 9.2 0 4.3-2.6 8 2.3 5.9 4.6 11.9 2.8 7.6 2.8 12.3 0 5.2-4.2 8.9zm53 0h47.2q-1.3 4.7-5.8 7.4-4.1 2.3-9.3 2.3h-33.7q-29.4 0-29.4-17.7 0-11.4 10-17.9 8.7-5.6 20.6-5.6h8.8q7.7 0 13.5 2.4 7.7 3.2 8.1 9.6 0.3 6.5-6.2 10.7h-20.1l6.5-13h-12.7l-5 14.6q-0.4 1.3-0.4 2.3 0 4.9 7.9 4.9zm68.3 0h25.4q-1.5 5.4-7 7.9-3.8 1.8-8.2 1.8h-23.3q-8.9 0-8.9-6.1 0-1.6 0.6-3.6l22.5-63.3h21.4zm130.5 0h24.8q-1.6 5.3-7 7.9-3.8 1.8-8.2 1.8h-24.1q-8.3 0-8.3-5.5 0-1.8 0.8-4.2l4.6-13-20.8 17.6q-7.3 5.1-12 5.1h-11.2l14.5-41.2h21.8l-6.8 19.4 18.5-15.1q7.5-6.2 16.3-5.9 5.9 0.2 5.9 6.3 0 2.2-1 5zm77.2 0h25.1q-2.9 9.7-14.8 9.7h-23q-9.8 0-9.8-6.3-6.6 7.5-16.2 7.5-7.1 0-11.5-4.4-4.5-4.3-4.5-11.3 0-12.7 9.7-20 8.8-6.7 21.8-6.7h34.5zm-21.6 0l7.7-21.8h-13.4l-4.2 14.1q-0.4 1.4-0.4 2.4 0 5.3 10.3 5.3zm75.9 0h46.5q-1.3 4.7-5.6 7.3-3.8 2.4-9 2.4h-36.4q-10.5 0-17.5-3.5-9-4.4-9-13.3 0-1 0.1-2 1.2-10.9 11.3-17 8.8-5.4 20.9-5.4h15.2q5.2 0 8.8 3.3 3.6 3.3 3.6 8 0 4.8-3.7 8.1-3.6 3.3-8.7 3.3-5.1 0-8.8-3.3-3.5-3.4-3.5-8.2 0 0 0-1.5h-7.3l-4.7 13.4q-0.6 1.7-0.6 3.1 0 5.3 8.4 5.3zm87.4-56.3q0 6.1-4.7 10.3-4.7 4.2-11.3 4.2-6.7 0-11.4-4.2-4.7-4.2-4.7-10.3 0-6 4.7-10.2 4.7-4.3 11.4-4.3 6.6 0 11.3 4.3 4.7 4.2 4.7 10.2zm-20.3 56.3h24.7q-1.6 5.3-6.6 7.9-3.5 1.8-7.7 1.8h-23.9q-8.7 0-8.7-7.3 0-2 0.9-4.4l10.5-29.5h22zm52.6-31.5h75.1q-2.4 9.7-14.5 9.7h-37.9q2 1.4 3.3 4.9 1.2 3.5 1 6.2-0.8 10.1-8.9 15.8-7.7 5.5-20 5.6-14.3 0.1-22-5.6-6.8-5.1-6.8-13.4 0-1.7 0.3-3.3 1.6-9.1 9.1-14.3 8-5.6 21.3-5.6zm1.1 32.7l8-23h-13.8l-5.5 15.5q-0.4 1.2-0.4 2.3 0 5.2 9.7 5.2 1.1 0 2 0zm101.2-1.2h24.8q-1.6 5.4-7 7.9-3.8 1.8-8.2 1.8h-24.1q-8.3 0-8.3-5.4 0-1.8 0.8-4.3l4.6-13-20.8 17.6q-7.3 5.1-12 5.1h-11.2l14.5-41.2h21.9l-6.9 19.4 18.5-15.1q7.5-6.1 16.3-5.9 5.9 0.3 5.9 6.3 0 2.2-1 5zm77.2 0h25.1q-2.9 9.7-14.8 9.7h-23q-9.8 0-9.8-6.3-6.6 7.5-16.2 7.5-7.1 0-11.5-4.3-4.4-4.4-4.4-11.4 0-12.7 9.6-20 8.8-6.7 21.8-6.7h34.6zm-21.7 0l7.7-21.7h-13.4l-4.2 14.1q-0.4 1.3-0.4 2.4 0 5.2 10.3 5.2zm68.1 0h25.4q-1.5 5.4-6.9 7.9-3.9 1.8-8.2 1.8h-23.3q-9 0-9-6.1 0-1.6 0.7-3.6l22.4-63.3h21.5z"/>
	<g>
		<path class="s0" d="m59.2 1.6c0 0.6-2.1 1.7-4.6 2.5-6.5 1.9-12.5 8.5-19.6 21.1-5.7 10.2-5.9 11-3.9 12.5 3.5 2.5 25.8 14.9 26.1 14.4 0.2-0.1 1.5-2.2 2.8-4.5 1.3-2.3 5.5-9.4 9.3-15.9l6.8-11.5-4.3-6.9c-2.8-4.2-5.9-7.4-8.2-8.4-3.7-1.7-3.7-1.7-0.8-1.8 4.9 0 7.9 3 14.8 14.8 10.4 17.8 10.1 15.7 3.2 19.9-3.4 2.1-6 4-6 4.4 0 0.3 8.5 0.6 19 0.6h18.9l8.5-16.3c4.8-8.9 8.3-16.4 7.8-16.7-0.5-0.3-3.3 1.1-6.5 3-3.1 2-6.1 3.5-6.6 3.5-0.5 0-2.5-2.6-4.3-5.9-5.5-9.2-6.9-9.7-31.3-9.7-11.6 0-21.1 0.5-21.1 0.9z"/>
		<path class="s0" d="m110.6 47.9c-7.2 4.1-13 8.1-13 8.9 0 1.1 9.5 18.6 16.4 30 1.3 2.1 2.3 2.4 9.1 1.9 4.1-0.2 9.3-1.3 11.2-2.4l3.6-1.8-2.9 3.2c-2.8 3.2-3.1 3.2-20.2 3.2h-17.2v-7.2c0-4-0.4-7.3-1-7.3-1.1 0-18.2 31.3-18.2 33.5 0 2 17.6 29.5 19.2 30 1.2 0.5 1.4-1.3 0.8-7.4l-1-8h6.9c9.6 0 14.1-2.2 18.1-9.2 1.8-3.1 6.7-11.6 10.8-18.7 4.1-7.1 7-12.9 6.5-13.2-0.6-0.2-0.6-2.6 0.1-5.5 0.8-3.5 0.8-6.8-0.1-10-1.3-4.9-14-27.5-15.4-27.5-0.4 0.1-6.6 3.5-13.7 7.5z"/>
		<path class="s0" d="m14.1 46c-6.6 0.3-12.5 1-13 1.5-0.6 0.6 2 2.6 5.6 4.8l6.8 3.7-3.6 7.2c-2 4-3.6 8.3-3.6 9.8 0 1.4 3.3 8.4 7.3 15.3 4.1 7 8.8 15.3 10.6 18.6 1.7 3.1 3.6 5.5 4.2 5.3 0.5-0.2 2.6 1.2 4.5 3 5.2 4.8 13.9 6.9 28.3 6.9h12.4v-16.8-16.8h-19.1-19l-3.4 7.4c-1.8 4.1-3.4 9.2-3.2 11.2 0 3-0.2 3.2-1 1.2-2.4-5.8-1-9.6 12.6-32.6l2.3-3.7 5.9 3.5c3.2 1.9 6.5 3.2 7.1 3.1 0.6-0.2-1.8-4.9-5.2-10.6-3.5-5.6-7.9-13.1-10-16.5-3.7-6.2-3.8-6.3-9.1-6.1-3 0.1-10.8 0.5-17.4 0.6z"/>
	</g>
</svg>