<svg version="1.2" xmlns="http://www.w3.org/2000/svg" viewBox="0 0 346 160" width="346" height="160">
	<title>logo</title>
	<style>
		.s0 { fill: #FFFFFF } 
	</style>
	<g>
		<path class="s0" d="m163 0.8c0 0.5-1.7 1.4-3.8 2-5.5 1.7-10.6 7.2-16.6 17.9-4.7 8.6-4.9 9.2-3.2 10.5 2.9 2.1 21.7 12.6 22 12.2 0.1-0.1 1.2-2 2.3-3.9 1.1-1.9 4.7-7.9 7.8-13.4l5.8-9.7-3.7-5.8c-2.3-3.5-4.9-6.2-6.8-7.1-3.2-1.4-3.2-1.4-0.8-1.5 4.2 0 6.7 2.6 12.5 12.5 8.8 15 8.5 13.3 2.7 16.8-2.8 1.7-5 3.3-5 3.7 0 0.3 7.2 0.5 16 0.5h15.9l7.2-13.7c4-7.5 7-13.9 6.6-14.1-0.4-0.3-2.9 0.9-5.5 2.5-2.6 1.7-5.2 3-5.6 3-0.4 0-2.1-2.3-3.6-5-4.7-7.8-5.8-8.2-26.4-8.2-9.8 0-17.8 0.4-17.8 0.8z"/>
		<path class="s0" d="m206.4 39.8c-6.1 3.5-11 6.8-11 7.5 0 0.9 8 15.6 13.8 25.2 1.1 1.9 1.9 2.1 7.7 1.7 3.4-0.2 7.8-1.2 9.4-2.1l3.1-1.5-2.5 2.7c-2.4 2.7-2.6 2.7-17 2.7h-14.5v-6.1c0-3.3-0.4-6.1-0.9-6.1-0.9 0-15.3 26.4-15.3 28.2 0 1.7 14.8 24.9 16.2 25.3 1 0.4 1.1-1.1 0.6-6.3l-0.8-6.7h5.8c8.1 0 11.9-1.9 15.3-7.8 1.5-2.6 5.7-9.7 9.1-15.7 3.5-5.9 5.9-10.9 5.5-11.1-0.5-0.2-0.5-2.2 0.1-4.7 0.6-2.9 0.6-5.6-0.1-8.4-1.1-4.1-11.9-23.2-13-23.2-0.4 0.1-5.6 3-11.5 6.4z"/>
		<path class="s0" d="m125 38.2c-5.6 0.2-10.5 0.8-10.9 1.2-0.5 0.5 1.7 2.2 4.7 4.1l5.7 3.1-3 6.1c-1.7 3.3-3.1 7-3.1 8.2 0 1.2 2.9 7.1 6.2 13 3.5 5.8 7.4 12.8 8.9 15.6 1.4 2.6 3.1 4.6 3.6 4.4 0.4-0.1 2.2 1 3.8 2.5 4.4 4.1 11.7 5.9 23.8 5.9h10.5v-14.2-14.1h-16.1-16.1l-2.8 6.2c-1.5 3.5-2.8 7.7-2.7 9.5 0 2.5-0.1 2.7-0.8 1-2.1-4.9-0.8-8.1 10.6-27.5l1.9-3.1 5 2.9c2.7 1.6 5.5 2.7 6 2.6 0.5-0.2-1.6-4.1-4.4-8.9-2.9-4.7-6.7-11-8.4-13.8-3.1-5.3-3.2-5.4-7.7-5.2-2.5 0.1-9.1 0.4-14.7 0.5z"/>
	</g>
	<path id="Diesel nacional" class="s0" aria-label="Diesel nacional"  d="m37 140.2q0 3.6-2.6 7.7-3.4 5.4-9.8 8.4-5.9 2.7-12.7 2.7h-6.6l7.3-20.6h7.2l-6.1 17.4q3.9 0 7.8-2.4 3.9-2.5 5.6-6 1.6-3.2 1.6-5.3 0-3.4-1.9-4.9-1.7-1.3-5.3-1.3h-19.3l3-5.1h19.4q5.1 0 8.4 2.1 4 2.5 4 7.3zm14.5-3q0 2-1.6 3.4-1.5 1.4-3.7 1.4-2.2 0-3.8-1.4-1.5-1.4-1.5-3.4 0-2 1.5-3.4 1.6-1.4 3.8-1.4 2.2 0 3.7 1.4 1.6 1.4 1.6 3.4zm-6.8 18.6h8.2q-0.5 1.8-2.1 2.6-1.2 0.6-2.6 0.6h-7.9q-2.9 0-2.9-2.4 0-0.7 0.3-1.5l3.5-9.7h7.2zm17.8 0h15.6q-0.4 1.5-1.9 2.4-1.4 0.8-3.1 0.8h-11.1q-9.8 0-9.8-5.9 0-3.7 3.3-5.9 2.9-1.8 6.9-1.8h2.9q2.5 0 4.4 0.7 2.6 1.1 2.7 3.2 0.1 2.2-2.1 3.6h-6.6l2.2-4.3h-4.2l-1.7 4.8q-0.1 0.4-0.1 0.8 0 1.6 2.6 1.6zm31.7 0h8q-0.1 1.3-1.6 2.3-1.4 0.9-3.1 0.9h-15.3q-4.3 0-4.3-2.7 0-0.2 0-0.5 0.2-1.2 1.3-1.9 0.9-0.6 2.2-0.5 2.1 0 5.9 2.3 1-1.3 1-2.6 0-0.7-0.8-3.1l-2.3 2h-4l5.3-4.9q-0.4-0.6-0.5-1-0.3-0.8-0.3-1.7l5-5.3q3.3 0.6 3.3 3.1 0 1.4-0.9 2.6 0.8 2 1.5 3.9 0.9 2.6 0.9 4.1 0 1.8-1.3 3zm17.5 0h15.6q-0.4 1.5-1.9 2.4-1.4 0.8-3.1 0.8h-11.1q-9.8 0-9.8-5.9 0-3.7 3.4-5.9 2.8-1.8 6.8-1.8h2.9q2.5 0 4.4 0.7 2.6 1.1 2.7 3.2 0.1 2.2-2 3.6h-6.7l2.2-4.3h-4.2l-1.7 4.8q-0.1 0.4-0.1 0.8 0 1.6 2.6 1.6zm22.6 0h8.4q-0.5 1.7-2.3 2.6-1.3 0.6-2.7 0.6h-7.7q-3 0-3-2 0-0.6 0.2-1.2l7.5-21h7.1zm43.1 0h8.2q-0.5 1.8-2.3 2.6-1.3 0.6-2.7 0.6h-8q-2.7 0-2.7-1.8 0-0.6 0.2-1.4l1.6-4.3-6.9 5.9q-2.4 1.6-4 1.6h-3.7l4.8-13.6h7.2l-2.2 6.4 6.1-5q2.5-2 5.4-1.9 1.9 0.1 1.9 2.1 0 0.7-0.3 1.6zm25.5 0h8.3q-0.9 3.2-4.9 3.2h-7.6q-3.2 0-3.2-2.1-2.2 2.5-5.4 2.5-2.3 0-3.8-1.4-1.5-1.5-1.5-3.8 0-4.2 3.3-6.6 2.9-2.2 7.1-2.2h11.5zm-7.2 0l2.6-7.2h-4.5l-1.4 4.7q-0.1 0.4-0.1 0.8 0 1.7 3.4 1.7zm25.1 0h15.4q-0.4 1.6-1.8 2.4-1.3 0.8-3 0.8h-12.1q-3.4 0-5.8-1.2-2.9-1.4-2.9-4.4 0-0.3 0-0.6 0.4-3.6 3.7-5.6 3-1.8 6.9-1.8h5.1q1.7 0 2.9 1.1 1.2 1.1 1.2 2.6 0 1.6-1.2 2.7-1.2 1.1-2.9 1.1-1.7 0-2.9-1.1-1.2-1.1-1.2-2.7 0 0 0-0.5h-2.4l-1.6 4.4q-0.2 0.6-0.2 1 0 1.8 2.8 1.8zm28.9-18.6q0 2-1.5 3.4-1.6 1.4-3.7 1.4-2.3 0-3.8-1.4-1.6-1.4-1.6-3.4 0-2 1.6-3.4 1.5-1.4 3.8-1.4 2.1 0 3.7 1.4 1.5 1.4 1.5 3.4zm-6.7 18.6h8.2q-0.5 1.8-2.2 2.6-1.2 0.6-2.5 0.6h-7.9q-2.9 0-2.9-2.4 0-0.7 0.3-1.5l3.5-9.7h7.2zm17.4-10.4h24.9q-0.8 3.2-4.8 3.2h-12.6q0.7 0.4 1.1 1.6 0.4 1.2 0.4 2-0.3 3.4-3 5.3-2.5 1.8-6.6 1.8-4.7 0.1-7.3-1.8-2.2-1.7-2.2-4.5 0-0.5 0.1-1.1 0.5-3 3-4.7 2.6-1.8 7-1.8zm0.4 10.8l2.7-7.6h-4.6l-1.8 5.1q-0.2 0.4-0.2 0.8 0 1.7 3.2 1.7 0.4 0 0.7 0zm33.5-0.4h8.2q-0.5 1.8-2.3 2.6-1.3 0.6-2.7 0.6h-8q-2.8 0-2.8-1.8 0-0.6 0.3-1.4l1.5-4.3-6.9 5.8q-2.4 1.7-3.9 1.7h-3.7l4.8-13.6h7.2l-2.3 6.4 6.1-5q2.5-2 5.4-2 2 0.1 2 2.1 0 0.8-0.3 1.7zm25.5 0h8.3q-1 3.2-4.9 3.2h-7.6q-3.2 0-3.2-2.1-2.2 2.5-5.4 2.5-2.4 0-3.8-1.5-1.5-1.4-1.5-3.7 0-4.2 3.2-6.6 2.9-2.2 7.2-2.2h11.4zm-7.1 0l2.5-7.2h-4.4l-1.4 4.6q-0.1 0.5-0.1 0.8 0 1.8 3.4 1.8zm22.5 0h8.4q-0.5 1.7-2.3 2.6-1.2 0.6-2.7 0.6h-7.7q-3 0-3-2.1 0-0.5 0.3-1.1l7.4-21h7.1z"/>
</svg>