<svg version="1.2" xmlns="http://www.w3.org/2000/svg" viewBox="0 0 346 160" width="346" height="160">
	<title>logo</title>
	<style>
		.s0 { fill: #000000 } 
	</style>
	<path id="Diesel Nacional" class="s0" aria-label="Diesel Nacional"  d="m34.6 140.6q0 3.6-2.5 7.6-3.3 5.3-9.5 8.1-5.8 2.7-12.4 2.7h-6.5l7.1-20h7.1l-6 16.9q3.8 0 7.6-2.4 3.8-2.4 5.5-5.8 1.6-3.1 1.6-5.1 0-3.4-1.9-4.9-1.7-1.3-5.2-1.3h-18.8l3-4.9h18.9q4.9 0 8.1 2.1 3.9 2.4 3.9 7zm14.1-2.9q0 2-1.5 3.3-1.5 1.4-3.6 1.4-2.2 0-3.7-1.4-1.5-1.3-1.5-3.3 0-1.9 1.5-3.3 1.5-1.4 3.7-1.4 2.1 0 3.6 1.4 1.5 1.4 1.5 3.3zm-6.5 18.2h7.9q-0.5 1.7-2.1 2.5-1.1 0.6-2.5 0.6h-7.7q-2.8 0-2.8-2.3 0-0.7 0.3-1.5l3.4-9.5h7.1zm17.3 0h15.2q-0.4 1.5-1.9 2.4-1.3 0.7-3 0.7h-10.8q-9.5 0-9.5-5.7 0-3.7 3.2-5.7 2.8-1.8 6.7-1.8h2.8q2.5 0 4.3 0.7 2.5 1 2.7 3.1 0.1 2.1-2 3.5h-6.5l2.1-4.2h-4.1l-1.6 4.7q-0.2 0.4-0.2 0.7 0 1.6 2.6 1.6zm30.9 0h7.8q-0.1 1.3-1.5 2.2-1.4 0.9-3.1 0.9h-14.8q-4.3 0-4.3-2.6 0-0.2 0-0.5 0.2-1.2 1.3-1.8 0.9-0.6 2.1-0.5 2.1 0 5.7 2.3 1.1-1.3 1.1-2.6 0-0.7-0.9-3.1l-2.2 2h-3.9l5.2-4.8q-0.3-0.6-0.5-1-0.2-0.7-0.2-1.6l4.8-5.1q3.2 0.5 3.2 2.9 0 1.4-0.8 2.6 0.7 1.9 1.4 3.9 0.9 2.4 0.9 3.9 0 1.7-1.3 2.9zm17.1 0h15.2q-0.4 1.5-1.9 2.4-1.3 0.7-3 0.7h-10.8q-9.5 0-9.5-5.7 0-3.7 3.2-5.7 2.8-1.8 6.6-1.8h2.9q2.5 0 4.3 0.7 2.5 1 2.7 3.1 0.1 2.1-2.1 3.5h-6.4l2.1-4.2h-4.1l-1.6 4.7q-0.2 0.4-0.2 0.7 0 1.6 2.6 1.6zm22 0h8.2q-0.5 1.7-2.2 2.6-1.3 0.5-2.7 0.5h-7.5q-2.9 0-2.9-1.9 0-0.5 0.2-1.2l7.3-20.4h6.9zm68.9-20.3q0 2-1.6 3.4-1.5 1.3-3.6 1.3-2.1 0-3.6-1.3l-6.4 18q-1 2.6-3.2 2.6-3.1 0-3.6-2.6l-3.3-15.4-4.4 13q-0.7 2.1-2.6 3.3-1.8 1.1-4 1.1h-9.3q0.9-2.1 1.5-3 1.1-1.7 2.7-1.7 0.9 0 2.8 0.4 1.9 0.4 2.9 0.4 2 0 2.9-2.5l6-17.5q0.8-2.2 1.3-2.9 0.9-1.2 2.9-1.2 3 0 3.8 4.2l2.7 13.4 4-11.4q2.3-6.3 6.9-6.3 2 0 3.6 1.3 1.6 1.4 1.6 3.4zm9.7 20.3h8.1q-0.9 3.1-4.8 3.1h-7.4q-3.1 0-3.1-2-2.2 2.4-5.3 2.4-2.3 0-3.7-1.4-1.4-1.4-1.4-3.7 0-4.1 3.1-6.4 2.8-2.2 7-2.2h11.2zm-7 0l2.5-7h-4.3l-1.4 4.6q-0.1 0.4-0.1 0.7 0 1.7 3.3 1.7zm24.5 0h15q-0.5 1.6-1.8 2.4-1.3 0.8-2.9 0.8h-11.8q-3.4 0-5.6-1.2-2.9-1.4-2.9-4.3 0-0.3 0-0.6 0.4-3.5 3.6-5.5 2.9-1.7 6.8-1.7h4.9q1.7 0 2.8 1 1.2 1.1 1.2 2.6 0 1.6-1.2 2.6-1.2 1.1-2.8 1.1-1.7 0-2.8-1.1-1.2-1.1-1.2-2.6 0 0 0-0.5h-2.3l-1.6 4.3q-0.1 0.6-0.1 1 0 1.7 2.7 1.7zm28.2-18.1q0 1.9-1.6 3.3-1.5 1.4-3.6 1.4-2.2 0-3.7-1.4-1.5-1.4-1.5-3.3 0-2 1.5-3.3 1.5-1.4 3.7-1.4 2.1 0 3.6 1.4 1.6 1.3 1.6 3.3zm-6.6 18.1h8q-0.5 1.8-2.1 2.6-1.2 0.6-2.5 0.6h-7.7q-2.8 0-2.8-2.4 0-0.6 0.2-1.4l3.4-9.5h7.1zm17-10.2h24.2q-0.7 3.1-4.7 3.1h-12.2q0.7 0.5 1.1 1.6 0.4 1.2 0.3 2-0.3 3.3-2.9 5.1-2.4 1.8-6.4 1.8-4.6 0.1-7.1-1.8-2.2-1.6-2.2-4.3 0-0.5 0.1-1.1 0.5-2.9 2.9-4.6 2.6-1.8 6.9-1.8zm0.3 10.5l2.6-7.4h-4.4l-1.8 5q-0.1 0.4-0.1 0.8 0 1.7 3.1 1.7 0.4 0 0.6-0.1zm32.7-0.3h8q-0.5 1.7-2.3 2.5-1.2 0.6-2.6 0.6h-7.8q-2.7 0-2.7-1.8 0-0.5 0.3-1.3l1.5-4.2-6.7 5.7q-2.4 1.6-3.9 1.6h-3.6l4.7-13.3h7l-2.2 6.3 6-4.9q2.4-2 5.2-1.9 1.9 0.1 1.9 2 0 0.7-0.3 1.6zm24.9 0h8.1q-0.9 3.2-4.8 3.2h-7.4q-3.1 0-3.1-2.1-2.2 2.5-5.3 2.5-2.3 0-3.7-1.4-1.4-1.5-1.4-3.7 0-4.1 3.1-6.5 2.8-2.1 7-2.1h11.2zm-7 0l2.5-7h-4.3l-1.4 4.5q-0.1 0.4-0.1 0.8 0 1.7 3.3 1.7zm22 0h8.2q-0.5 1.7-2.3 2.5-1.2 0.6-2.6 0.6h-7.5q-2.9 0-2.9-2 0-0.5 0.2-1.1l7.2-20.4h6.9z"/>
	<g>
		<path class="s0" d="m163 0.8c0 0.5-1.7 1.4-3.8 2-5.5 1.7-10.6 7.2-16.6 17.9-4.7 8.6-4.9 9.2-3.2 10.5 2.9 2.1 21.7 12.6 22 12.2 0.1-0.1 1.2-2 2.3-3.9 1.1-1.9 4.7-7.9 7.8-13.4l5.8-9.7-3.7-5.8c-2.3-3.5-4.9-6.2-6.8-7.1-3.2-1.4-3.2-1.4-0.8-1.5 4.2 0 6.7 2.6 12.5 12.5 8.8 15 8.5 13.3 2.7 16.8-2.8 1.7-5 3.3-5 3.7 0 0.3 7.2 0.5 16 0.5h15.9l7.2-13.7c4-7.5 7-13.9 6.6-14.1-0.4-0.3-2.9 0.9-5.5 2.5-2.6 1.7-5.2 3-5.6 3-0.4 0-2.1-2.3-3.6-5-4.7-7.8-5.8-8.2-26.4-8.2-9.8 0-17.8 0.4-17.8 0.8z"/>
		<path class="s0" d="m206.4 39.8c-6.1 3.5-11 6.8-11 7.5 0 0.9 8 15.6 13.8 25.2 1.1 1.9 1.9 2.1 7.7 1.7 3.4-0.2 7.8-1.2 9.4-2.1l3.1-1.5-2.5 2.7c-2.4 2.7-2.6 2.7-17 2.7h-14.5v-6.1c0-3.3-0.4-6.1-0.9-6.1-0.9 0-15.3 26.4-15.3 28.2 0 1.7 14.8 24.9 16.2 25.3 1 0.4 1.1-1.1 0.6-6.3l-0.8-6.7h5.8c8.1 0 11.9-1.9 15.3-7.8 1.5-2.6 5.7-9.7 9.1-15.7 3.5-5.9 5.9-10.9 5.5-11.1-0.5-0.2-0.5-2.2 0.1-4.7 0.6-2.9 0.6-5.6-0.1-8.4-1.1-4.1-11.9-23.2-13-23.2-0.4 0.1-5.6 3-11.5 6.4z"/>
		<path class="s0" d="m125 38.2c-5.6 0.2-10.5 0.8-10.9 1.2-0.5 0.5 1.7 2.2 4.7 4.1l5.7 3.1-3 6.1c-1.7 3.3-3.1 7-3.1 8.2 0 1.2 2.9 7.1 6.2 13 3.5 5.8 7.4 12.8 8.9 15.6 1.4 2.6 3.1 4.6 3.6 4.4 0.4-0.1 2.2 1 3.8 2.5 4.4 4.1 11.7 5.9 23.8 5.9h10.5v-14.2-14.1h-16.1-16.1l-2.8 6.2c-1.5 3.5-2.8 7.7-2.7 9.5 0 2.5-0.1 2.7-0.8 1-2.1-4.9-0.8-8.1 10.6-27.5l1.9-3.1 5 2.9c2.7 1.6 5.5 2.7 6 2.6 0.5-0.2-1.6-4.1-4.4-8.9-2.9-4.7-6.7-11-8.4-13.8-3.1-5.3-3.2-5.4-7.7-5.2-2.5 0.1-9.1 0.4-14.7 0.5z"/>
	</g>
</svg>