<svg version="1.2" xmlns="http://www.w3.org/2000/svg" viewBox="0 0 361 160" width="361" height="160">
	<title>logo</title>
	<style>
		.s0 { fill: #000000 } 
	</style>
	<g>
		<path class="s0" d="m173 9.8c0 0.5-1.7 1.4-3.8 2-5.4 1.6-10.4 7.1-16.3 17.6-4.7 8.5-4.9 9.1-3.2 10.4 2.9 2.1 21.4 12.4 21.7 12 0.1-0.1 1.2-1.9 2.3-3.8 1.1-1.9 4.6-7.8 7.7-13.2l5.7-9.6-3.6-5.7c-2.3-3.5-4.9-6.2-6.8-7-3.1-1.4-3.1-1.4-0.7-1.5 4.1 0 6.6 2.5 12.3 12.3 8.7 14.8 8.4 13.1 2.7 16.6-2.8 1.7-5 3.3-5 3.6 0 0.3 7.1 0.5 15.8 0.5h15.7l7.1-13.5c4-7.4 6.9-13.7 6.5-13.9-0.4-0.3-2.8 0.9-5.4 2.5-2.6 1.6-5.1 2.9-5.5 2.9-0.4 0-2.1-2.2-3.6-4.9-4.6-7.7-5.7-8.1-26-8.1-9.7 0-17.6 0.4-17.6 0.8z"/>
		<path class="s0" d="m215.8 48.3c-6 3.4-10.8 6.7-10.8 7.4 0 0.9 7.9 15.4 13.6 24.9 1.1 1.8 1.9 2 7.6 1.6 3.4-0.2 7.7-1.1 9.3-2l3-1.5-2.4 2.7c-2.4 2.6-2.6 2.6-16.8 2.6h-14.3v-6c0-3.3-0.4-6-0.9-6-0.9 0-15.1 26-15.1 27.8 0 1.7 14.6 24.6 16 25 1 0.4 1.1-1.1 0.6-6.2l-0.8-6.6h5.7c8 0 11.8-1.9 15.1-7.7 1.5-2.6 5.6-9.6 9-15.5 3.4-5.9 5.8-10.8 5.4-11-0.5-0.2-0.5-2.2 0.1-4.6 0.6-2.9 0.6-5.6-0.1-8.3-1.1-4.1-11.7-22.9-12.8-22.9-0.4 0.1-5.5 2.9-11.4 6.3z"/>
		<path class="s0" d="m135.5 46.7c-5.5 0.2-10.4 0.8-10.8 1.2-0.5 0.5 1.7 2.2 4.7 4l5.6 3.1-3 6c-1.6 3.3-3 6.9-3 8.1 0 1.2 2.8 7 6.1 12.8 3.4 5.8 7.3 12.7 8.8 15.4 1.4 2.6 3 4.6 3.5 4.4 0.4-0.1 2.2 1 3.8 2.5 4.3 4 11.5 5.8 23.5 5.8h10.3v-14-14h-15.9-15.8l-2.8 6.2c-1.5 3.4-2.8 7.6-2.7 9.3 0 2.5-0.1 2.7-0.8 1-2-4.8-0.8-8 10.5-27.1l1.9-3.1 4.9 2.9c2.7 1.6 5.4 2.7 5.9 2.6 0.5-0.2-1.5-4.1-4.3-8.8-2.9-4.7-6.6-10.9-8.3-13.7-3.1-5.2-3.2-5.3-7.6-5.1-2.5 0.1-9 0.4-14.5 0.5z"/>
		<path class="s0" d="m8.6 123.2c-0.8 1.2-1.3 2.5-1 2.9 0.2 0.4 5.5 0.8 11.7 0.8 10.3 0 11.3 0.2 12.9 2.2 1 1.1 1.8 2.9 1.8 3.8-0.1 3.2-3.6 8.6-6.9 10.8-3.5 2.4-7.8 3.9-8.6 3.1-0.3-0.3 0.6-3.8 2-7.8 3.2-9.5 3.2-10-0.8-10-3.3 0-3.3 0-6.2 9.2-1.6 5.1-3 9.9-3.3 10.5-0.3 1 1.4 1.3 6.5 1.3 13.4 0 25.3-9 25.3-19.2 0-7.3-5.4-9.8-21.7-9.8-9.3 0-10.3 0.2-11.7 2.2z"/>
		<path class="s0" d="m47.2 124.2c-2.2 2.2-1.4 6.7 1.3 8 3.7 1.7 7.5-0.3 7.5-4 0-3.5-1.6-5.2-5-5.2-1.4 0-3.1 0.5-3.8 1.2z"/>
		<path class="s0" d="m250.5 125.4c-2.6 4 1.1 8.5 5.8 7 2.7-0.8 3.7-2.2 3.7-5.1 0-4.4-7-5.8-9.5-1.9z"/>
		<path class="s0" d="m141 127.4c-0.5 1.3-2.1 6.3-3.5 11l-2.6 8.6h-8.9c-4.9 0-9.1-0.4-9.4-0.9-0.4-0.5-0.2-2.1 0.4-3.5 1.2-3.2 5.1-3.7 4.3-0.6-0.5 1.7 0 2 3 2 2.7 0 3.7-0.5 4.2-2.1 2.3-7.3-16.7-7.7-19.5-0.5-0.5 1.4-0.7 3.3-0.4 4.1 0.5 1.2-0.2 1.5-3.2 1.5-3.9 0-3.9 0-4.1-4.3-0.7-13.1-1.7-14.6-6.3-10.2-1.7 1.6-2.9 3.4-2.6 4 0.2 0.5-0.8 2.2-2.2 3.7-2.5 2.7-2.5 2.8-0.4 2.8 1.1 0 2.4-0.5 2.8-1.1 1-1.6 2.6 1.5 1.8 3.5-0.5 1.4-0.9 1.4-3.6 0-2.7-1.4-3.2-1.4-5.3 0-3.1 2-19.5 2.3-19.5 0.3 0.1-3.3 1.4-5.7 3.2-5.7 1.5 0 1.8 0.5 1.3 2-0.5 1.7-0.2 2 2.7 2 6 0 7.8-3.9 2.8-6.5-7.1-3.7-17.2-0.1-17.8 6.3-0.3 3-0.6 3.2-4.2 3.2h-3.9l1.4-4.8c2-6.3 2-6.2-2-6.2-3.3 0-3.5 0.2-5 5.2-2.6 8.7-2.5 8.8 5.3 8.8 3.7 0 7.3-0.5 7.9-1.1 0.8-0.8 1.7-0.8 3 0 2.8 1.4 45.3 1.4 47-0.1 1-0.8 2-0.8 3.8 0 2.6 1.2 34.3 1.6 37.1 0.5 2.6-1 1.4-2.2-2.5-2.5l-4-0.3 3-9c3.7-11.6 3.7-12.5-0.1-12.5-2.3 0-3.3 0.6-4 2.4z"/>
		<path class="s0" d="m348.3 126.2c-0.4 0.7-2.2 5.5-3.8 10.8l-3.1 9.5-4.2 0.3c-4.7 0.4-4.8 0.2-2.7-5.8 0.8-2.3 1.5-4.4 1.5-4.6 0-0.9-13-0.3-15.9 0.7-3.1 1.1-6.1 5.2-6.1 8.4 0 1.1-1 1.5-3.6 1.5-3.4 0-3.6-0.2-3-2.6 2.1-8.2 2.1-8.4-1.2-8.4-1.7 0-3.3 0.4-3.7 1-0.3 0.5-1.9 1.9-3.6 3.1l-3.1 2.2 0.7-3.2 0.7-3.1h-14.2c-10.8 0-14.8 0.4-17.1 1.5-3.1 1.6-5.4 5.8-4.5 8.2 0.4 0.9-0.5 1.3-3.5 1.3-3.8 0-3.9-0.1-3.3-2.8 0.4-1.5 1.1-3.7 1.5-5 1.3-3.3 1.3-3.4-2.8-3-3.6 0.3-3.9 0.5-5.3 5.5l-1.5 5.3h-8.7c-4.8 0-8.9-0.4-9.2-0.9-1-1.5 1.2-6.1 2.9-6.1 0.8 0 1.5 0.7 1.5 1.5 0 2 4.6 3 6.5 1.5 0.8-0.7 1.5-2.1 1.5-3.1 0-2.9-3.7-4.2-9.8-3.6-6.5 0.7-10.2 3.6-10.2 7.9 0 2.6-0.3 2.8-4 2.8-4.5 0-4.5 0.1-2.5-6.3l1.4-4.7h-7.2c-9.1 0-13.3 2.2-14.3 7.5-0.6 3.2-0.9 3.5-4.1 3.5-3.1 0-3.5-0.2-3-2.3 2.1-9.4 2.2-8.7-0.8-8.7-1.6 0-4.4 1.4-7.1 3.6-4.4 3.6-4.4 3.6-3.4 1 1.5-4.1 1.3-4.6-2.5-4.6-3.4 0-3.5 0.1-5.5 6.6-1.1 3.6-2 6.8-2 7 0 0.2 1.3 0.4 2.8 0.4 1.8 0 4.4-1.3 7-3.5l4.1-3.6-0.6 3.6-0.6 3.5h7.1c3.9 0 7.3-0.4 7.7-0.9 0.3-0.6 1.6-0.4 3.1 0.4 1.6 0.8 3.5 1 4.7 0.6 1.2-0.5 5.2-0.6 9-0.3 4.4 0.3 7.6 0 9.1-0.8 1.7-0.9 2.9-0.9 4.4-0.1 2.8 1.5 34.8 1.3 37.3-0.2 1.4-0.9 2.1-0.9 3.1 0.1 0.6 0.6 3.6 1.2 6.5 1.2 4.4 0 5.8-0.5 7.9-2.5 1.7-1.7 2.4-3.4 2.2-5.2-0.3-2.9-0.5-2.8 6.2-2.4 1.6 0.1 1.8 0.5 1.1 2.3-0.4 1.3-1.1 3.5-1.5 5-0.6 2.6-0.4 2.8 2.2 2.8 1.8 0 4.3-1.3 7-3.5l4.1-3.6-0.6 3.6-0.6 3.5h7.1c3.9 0 7.3-0.4 7.7-0.9 0.3-0.6 1.6-0.4 3.2 0.4 1.5 0.8 3.1 1.1 3.7 0.8 0.5-0.4 8.5-0.6 17.7-0.5 13.7 0.2 16.9-0.1 17.9-1.3 1.1-1.3 0.7-1.5-2.9-1.5-2.2 0-4.1-0.4-4.1-1 0-0.5 1.3-5.1 3-10.2 1.6-5 2.7-9.5 2.4-10-0.8-1.2-5.2-1-6.1 0.4zm-141.8 16.5c-0.9 3.7-2.2 5-3.6 3.6-1.7-1.7 0-6.3 2.3-6.3 1.7 0 1.9 0.4 1.3 2.7zm67.5-1.8c0 2.8-2.1 6.1-4 6.1-2.3 0-2.4-0.7-1-4.4 0.9-2.5 5-3.8 5-1.7zm52.5 1.8c-0.9 3.7-2.2 5-3.6 3.6-1.7-1.7 0-6.3 2.3-6.3 1.7 0 1.9 0.4 1.3 2.7z"/>
	</g>
</svg>