<svg version="1.2" xmlns="http://www.w3.org/2000/svg" viewBox="0 0 1069 88" width="1070" height="88">
	<title>Proyecto nuevo</title>
	<style>
		.s0 { fill: #000000 } 
	</style>
	<path id="Diesel Nacional" class="s0" aria-label="Diesel Nacional"  d="m106.2 29.1q0 11.1-7.7 23.4-10.2 16.3-29.6 25.3-17.8 8.2-38.4 8.2h-19.9l21.9-62.1h21.8l-18.6 52.4q12 0 23.7-7.3 11.7-7.3 17.1-18.1 4.8-9.5 4.8-15.9 0-10.4-5.8-14.9-5.2-4-16-4h-58.5l9.3-15.3h58.6q15.2 0 25.3 6.4 12 7.6 12 21.9zm43.9-9.1q0 6.1-4.8 10.3-4.6 4.2-11.2 4.2-6.8 0-11.5-4.2-4.6-4.2-4.6-10.3 0-6 4.6-10.2 4.7-4.3 11.5-4.3 6.6 0 11.2 4.3 4.8 4.2 4.8 10.2zm-20.4 56.3h24.7q-1.6 5.3-6.5 7.9-3.6 1.8-7.8 1.8h-23.9q-8.7 0-8.7-7.3 0-2 0.9-4.4l10.5-29.5h22zm53.6 0h47.2q-1.3 4.7-5.8 7.4-4.1 2.3-9.3 2.3h-33.7q-29.4 0-29.4-17.7 0-11.4 10-17.9 8.7-5.6 20.6-5.6h8.8q7.7 0 13.5 2.4 7.8 3.2 8.1 9.6 0.3 6.5-6.2 10.7h-20.1l6.6-13h-12.8l-5 14.6q-0.4 1.3-0.4 2.3 0 4.9 7.9 4.9zm95.8 0h24.2q-0.2 4.1-4.7 6.9-4.3 2.8-9.5 2.8h-46q-13.3 0-13.3-8.1 0-0.7 0.1-1.6 0.5-3.6 3.9-5.6 2.9-1.8 6.6-1.7 6.6 0.2 17.8 7.2 3.2-4 3.2-8.1 0-2.1-2.6-9.4l-6.8 6.2h-12.2l16.1-14.8q-1-1.9-1.5-3.1-0.8-2.3-0.8-5.1l14.9-15.9q10 1.7 10 9.2 0 4.3-2.6 8 2.3 5.9 4.6 11.9 2.8 7.6 2.8 12.3 0 5.2-4.2 8.9zm53 0h47.2q-1.3 4.7-5.8 7.4-4.1 2.3-9.3 2.3h-33.7q-29.4 0-29.4-17.7 0-11.4 10-17.9 8.7-5.6 20.6-5.6h8.8q7.7 0 13.5 2.4 7.7 3.2 8.1 9.6 0.3 6.5-6.2 10.7h-20.1l6.5-13h-12.7l-5 14.6q-0.4 1.3-0.4 2.3 0 4.9 7.9 4.9zm68.3 0h25.4q-1.5 5.4-7 7.9-3.8 1.8-8.2 1.8h-23.3q-8.9 0-8.9-6.1 0-1.6 0.6-3.6l22.5-63.3h21.4zm213.7-62.9q0 6.3-5 10.5-4.7 4.1-11.2 4.1-6.4 0-11-4l-20.1 55.8q-2.8 8.1-9.8 8.1-9.5 0-11.3-8.2l-10-47.7-13.6 40.4q-2.1 6.3-8.1 10-5.7 3.6-12.5 3.6h-28.8q2.7-6.7 4.6-9.4 3.5-5.3 8.3-5.3 2.9 0 8.8 1.3 5.9 1.2 9 1.2 6.3 0 9-7.8l18.6-54.1q2.4-7 4.1-9 2.8-3.6 9-3.6 9.1 0 11.7 12.9l8.3 41.4 12.5-35.2q7-19.5 21.2-19.5 6.4 0 11.2 4 5.1 4.3 5.1 10.5zm30 62.9h25.2q-2.9 9.7-14.9 9.7h-22.9q-9.8 0-9.8-6.3-6.6 7.5-16.3 7.5-7 0-11.5-4.4-4.4-4.3-4.4-11.3 0-12.7 9.7-20 8.8-6.7 21.7-6.7h34.6zm-21.6 0l7.7-21.8h-13.4l-4.2 14.1q-0.4 1.4-0.4 2.4 0 5.3 10.3 5.3zm75.9 0h46.5q-1.4 4.7-5.6 7.3-3.9 2.4-9 2.4h-36.5q-10.4 0-17.5-3.5-8.9-4.4-8.9-13.3 0-1 0.1-2 1.2-10.9 11.3-17 8.8-5.4 20.8-5.4h15.3q5.1 0 8.8 3.3 3.6 3.3 3.6 8 0 4.8-3.7 8.1-3.6 3.3-8.7 3.3-5.1 0-8.8-3.3-3.6-3.4-3.5-8.2 0 0 0-1.5h-7.3l-4.7 13.4q-0.6 1.7-0.6 3.1 0 5.3 8.4 5.3zm87.4-56.3q0 6.1-4.7 10.3-4.7 4.2-11.3 4.2-6.7 0-11.4-4.2-4.7-4.2-4.7-10.3 0-6 4.7-10.2 4.7-4.3 11.4-4.3 6.6 0 11.3 4.3 4.7 4.2 4.7 10.2zm-20.3 56.3h24.7q-1.6 5.3-6.6 7.9-3.6 1.8-7.7 1.8h-23.9q-8.7 0-8.7-7.3 0-2 0.8-4.4l10.6-29.5h22zm52.6-31.5h75.1q-2.4 9.7-14.5 9.7h-37.9q2 1.4 3.2 4.9 1.3 3.5 1.1 6.2-0.9 10.1-8.9 15.8-7.7 5.5-20 5.6-14.3 0.1-22-5.6-6.8-5.1-6.8-13.4 0-1.7 0.3-3.3 1.6-9.1 9.1-14.3 8-5.6 21.3-5.6zm1.1 32.7l8-23h-13.8l-5.5 15.5q-0.4 1.2-0.4 2.3 0 5.2 9.7 5.2 1.1 0 2 0zm101.2-1.2h24.8q-1.6 5.4-7 7.9-3.8 1.8-8.2 1.8h-24.1q-8.3 0-8.3-5.4 0-1.9 0.8-4.3l4.6-13-20.8 17.6q-7.3 5.1-12.1 5.1h-11.1l14.5-41.2h21.8l-6.8 19.4 18.5-15.1q7.5-6.1 16.2-5.9 6 0.3 6 6.3 0 2.2-1 5zm77.1 0h25.2q-2.9 9.7-14.9 9.7h-22.9q-9.8 0-9.8-6.3-6.6 7.5-16.2 7.5-7.1 0-11.5-4.3-4.5-4.4-4.5-11.4 0-12.7 9.7-20 8.8-6.7 21.8-6.7h34.5zm-21.6 0l7.7-21.8h-13.4l-4.2 14.2q-0.4 1.3-0.4 2.4 0 5.2 10.3 5.2zm68.1 0h25.4q-1.5 5.4-7 7.9-3.8 1.8-8.1 1.8h-23.4q-8.9 0-8.9-6.1 0-1.6 0.7-3.6l22.4-63.3h21.5z"/>
</svg>